<svg id="icons" viewBox="0 0 60 60" xmlns="http://www.w3.org/2000/svg" width="300" height="300" version="1.1" xmlns:xlink="http://www.w3.org/1999/xlink" xmlns:svgjs="http://svgjs.dev/svgjs"><g width="100%" height="100%" transform="matrix(1,0,0,1,0,0)"><path d="m10.07 37.96a10 10 0 0 1 -1.28-19.71.493.493 0 0 0 .38-.59 8.288 8.288 0 0 1 -.13-2.45 7.988 7.988 0 0 1 11-6.61.5.5 0 0 0 .63-.23 14.022 14.022 0 0 1 26.29 5.19.5.5 0 0 0 .48.45 12 12 0 0 1 2.43 23.64z" fill="#dd6060" fill-opacity="0" data-original-color="#60dcddff" stroke="none" stroke-opacity="1"/><path d="m28.209 10.116a29.156 29.156 0 0 1 13.757 24.056.841.841 0 0 0 1.454.529 9.85 9.85 0 0 0 2.225-4.367.816.816 0 0 1 1.461-.262 17.326 17.326 0 0 1 2.894 9.712c0 10.616-8.954 19.216-20 19.216s-20-8.6-20-19.216a26.962 26.962 0 0 1 1.142-7.814.822.822 0 0 1 1.553-.065 8.587 8.587 0 0 0 1.814 2.895.839.839 0 0 0 1.411-.6 13.916 13.916 0 0 1 4.08-9.586c4.673-4.726 6.725-7.685 6.974-13.831a.815.815 0 0 1 1.235-.667z" fill="#ff882e" fill-opacity="1" data-original-color="#a53c50ff" stroke="none" stroke-opacity="1"/><path d="m28.836 27.078a19.046 19.046 0 0 1 8.942 15.709.546.546 0 0 0 .945.345 6.441 6.441 0 0 0 1.446-2.852.53.53 0 0 1 .95-.171 11.36 11.36 0 0 1 1.881 6.343 12.78 12.78 0 0 1 -13 12.548 12.78 12.78 0 0 1 -13-12.548 17.68 17.68 0 0 1 .742-5.1.534.534 0 0 1 1.01-.043 5.585 5.585 0 0 0 1.179 1.888.545.545 0 0 0 .917-.388 9.114 9.114 0 0 1 2.652-6.264c3.037-3.086 4.371-5.018 4.533-9.032a.529.529 0 0 1 .803-.435z" fill="#ffe732" fill-opacity="1" data-original-color="#e3c84cff" stroke="none" stroke-opacity="1"/><g fill="#fff"><path d="m25 53a1 1 0 0 1 -.707-.293l-3-3a1 1 0 0 1 0-1.414l3-3a1 1 0 0 1 1.414 1.414l-2.293 2.293 2.293 2.293a1 1 0 0 1 -.707 1.707z" fill="#ff8100" fill-opacity="1" data-original-color="#ffffffff" stroke="none" stroke-opacity="1"/><path d="m35 53a1 1 0 0 1 -.707-1.707l2.293-2.293-2.293-2.293a1 1 0 0 1 1.414-1.414l3 3a1 1 0 0 1 0 1.414l-3 3a1 1 0 0 1 -.707.293z" fill="#ff8100" fill-opacity="1" data-original-color="#ffffffff" stroke="none" stroke-opacity="1"/><path d="m29 53a1 1 0 0 1 -.948-1.316l2-6a1 1 0 1 1 1.9.632l-2 6a1 1 0 0 1 -.952.684z" fill="#ff8100" fill-opacity="1" data-original-color="#ffffffff" stroke="none" stroke-opacity="1"/></g></g></svg>